<svg width="236" height="236" viewBox="0 0 236 236" fill="none" xmlns="http://www.w3.org/2000/svg">
<g filter="url(#filter0_d_43_2)">
<g clip-path="url(#clip0_43_2)">
<mask id="path-1-inside-1_43_2" fill="white">
<path d="M38 45C38 27.3269 52.3269 13 70 13H166C183.673 13 198 27.3269 198 45V141C198 158.673 183.673 173 166 173H70C52.3269 173 38 158.673 38 141V45Z"/>
</mask>
<path d="M38 45C38 27.3269 52.3269 13 70 13H166C183.673 13 198 27.3269 198 45V141C198 158.673 183.673 173 166 173H70C52.3269 173 38 158.673 38 141V45Z" fill="url(#paint0_linear_43_2)"/>
<g opacity="0.5">
<rect width="158" height="158" transform="translate(39 14)" fill="url(#paint1_linear_43_2)"/>
</g>
<g opacity="0.838091" filter="url(#filter1_f_43_2)">
<path d="M54 93C54 57.6538 82.6538 29 118 29C153.346 29 182 57.6538 182 93C182 128.346 153.346 157 118 157C82.6538 157 54 128.346 54 93Z" fill="url(#paint2_linear_43_2)"/>
</g>
<path opacity="0.04" d="M118 135C141.196 135 160 116.196 160 93C160 69.804 141.196 51 118 51C94.804 51 76 69.804 76 93C76 116.196 94.804 135 118 135Z" fill="url(#paint3_linear_43_2)"/>
<path d="M93 63L118 113" stroke="url(#paint4_linear_43_2)" stroke-width="10" stroke-linecap="round" stroke-linejoin="round"/>
<path d="M118 113L143 63" stroke="url(#paint5_linear_43_2)" stroke-width="10" stroke-linecap="round" stroke-linejoin="round"/>
<path opacity="0.8" d="M118 117C120.209 117 122 115.209 122 113C122 110.791 120.209 109 118 109C115.791 109 114 110.791 114 113C114 115.209 115.791 117 118 117Z" fill="white"/>
</g>
<path d="M70 13V14H166V13V12H70V13ZM198 45H197V141H198H199V45H198ZM166 173V172H70V173V174H166V173ZM38 141H39V45H38H37V141H38ZM70 173V172C52.8792 172 39 158.121 39 141H38H37C37 159.225 51.7746 174 70 174V173ZM198 141H197C197 158.121 183.121 172 166 172V173V174C184.225 174 199 159.225 199 141H198ZM166 13V14C183.121 14 197 27.8792 197 45H198H199C199 26.7746 184.225 12 166 12V13ZM70 13V12C51.7746 12 37 26.7746 37 45H38H39C39 27.8792 52.8792 14 70 14V13Z" fill="white" fill-opacity="0.1" mask="url(#path-1-inside-1_43_2)"/>
</g>
<defs>
<filter id="filter0_d_43_2" x="0" y="0" width="236" height="236" filterUnits="userSpaceOnUse" color-interpolation-filters="sRGB">
<feFlood flood-opacity="0" result="BackgroundImageFix"/>
<feColorMatrix in="SourceAlpha" type="matrix" values="0 0 0 0 0 0 0 0 0 0 0 0 0 0 0 0 0 0 127 0" result="hardAlpha"/>
<feMorphology radius="12" operator="erode" in="SourceAlpha" result="effect1_dropShadow_43_2"/>
<feOffset dy="25"/>
<feGaussianBlur stdDeviation="25"/>
<feComposite in2="hardAlpha" operator="out"/>
<feColorMatrix type="matrix" values="0 0 0 0 0 0 0 0 0 0 0 0 0 0 0 0 0 0 0.25 0"/>
<feBlend mode="normal" in2="BackgroundImageFix" result="effect1_dropShadow_43_2"/>
<feBlend mode="normal" in="SourceGraphic" in2="effect1_dropShadow_43_2" result="shape"/>
</filter>
<filter id="filter1_f_43_2" x="-74" y="-99" width="384" height="384" filterUnits="userSpaceOnUse" color-interpolation-filters="sRGB">
<feFlood flood-opacity="0" result="BackgroundImageFix"/>
<feBlend mode="normal" in="SourceGraphic" in2="BackgroundImageFix" result="shape"/>
<feGaussianBlur stdDeviation="64" result="effect1_foregroundBlur_43_2"/>
</filter>
<linearGradient id="paint0_linear_43_2" x1="118" y1="13" x2="118" y2="173" gradientUnits="userSpaceOnUse">
<stop stop-color="#0B132B"/>
<stop offset="0.5" stop-color="#0D1630"/>
<stop offset="1" stop-color="#0B132B"/>
</linearGradient>
<linearGradient id="paint1_linear_43_2" x1="0" y1="0" x2="158" y2="158" gradientUnits="userSpaceOnUse">
<stop stop-color="#6C63FF" stop-opacity="0.1"/>
<stop offset="0.5" stop-opacity="0"/>
<stop offset="1" stop-color="#68D4FF" stop-opacity="0.1"/>
</linearGradient>
<linearGradient id="paint2_linear_43_2" x1="54" y1="29" x2="182" y2="157" gradientUnits="userSpaceOnUse">
<stop stop-color="#6C63FF" stop-opacity="0.2"/>
<stop offset="1" stop-color="#68D4FF" stop-opacity="0.2"/>
</linearGradient>
<linearGradient id="paint3_linear_43_2" x1="76" y1="51" x2="8476" y2="8451" gradientUnits="userSpaceOnUse">
<stop stop-color="#6C63FF"/>
<stop offset="1" stop-color="#8B7FFF"/>
</linearGradient>
<linearGradient id="paint4_linear_43_2" x1="93" y1="63" x2="4093" y2="2063" gradientUnits="userSpaceOnUse">
<stop stop-color="#6C63FF"/>
<stop offset="1" stop-color="#8B7FFF"/>
</linearGradient>
<linearGradient id="paint5_linear_43_2" x1="2618" y1="63" x2="-1382" y2="2063" gradientUnits="userSpaceOnUse">
<stop stop-color="#68D4FF"/>
<stop offset="1" stop-color="#8DD8FF"/>
</linearGradient>
<clipPath id="clip0_43_2">
<path d="M38 45C38 27.3269 52.3269 13 70 13H166C183.673 13 198 27.3269 198 45V141C198 158.673 183.673 173 166 173H70C52.3269 173 38 158.673 38 141V45Z" fill="white"/>
</clipPath>
</defs>
</svg>
