<svg width="100" height="100" viewBox="0 0 100 100" fill="none" xmlns="http://www.w3.org/2000/svg">
<path opacity="0.04" d="M50 92C73.196 92 92 73.196 92 50C92 26.804 73.196 8 50 8C26.804 8 8 26.804 8 50C8 73.196 26.804 92 50 92Z" fill="url(#paint0_linear_42_322)"/>
<path d="M25 20L50 70" stroke="url(#paint1_linear_42_322)" stroke-width="10" stroke-linecap="round" stroke-linejoin="round"/>
<path d="M50 70L75 20" stroke="url(#paint2_linear_42_322)" stroke-width="10" stroke-linecap="round" stroke-linejoin="round"/>
<path opacity="0.8" d="M50 74C52.2091 74 54 72.2091 54 70C54 67.7909 52.2091 66 50 66C47.7909 66 46 67.7909 46 70C46 72.2091 47.7909 74 50 74Z" fill="white"/>
<defs>
<linearGradient id="paint0_linear_42_322" x1="8" y1="8" x2="8408" y2="8408" gradientUnits="userSpaceOnUse">
<stop stop-color="#6C63FF"/>
<stop offset="1" stop-color="#8B7FFF"/>
</linearGradient>
<linearGradient id="paint1_linear_42_322" x1="25" y1="20" x2="4025" y2="2020" gradientUnits="userSpaceOnUse">
<stop stop-color="#6C63FF"/>
<stop offset="1" stop-color="#8B7FFF"/>
</linearGradient>
<linearGradient id="paint2_linear_42_322" x1="2550" y1="20" x2="-1450" y2="2020" gradientUnits="userSpaceOnUse">
<stop stop-color="#68D4FF"/>
<stop offset="1" stop-color="#8DD8FF"/>
</linearGradient>
</defs>
</svg>
